<svg id="Ebene_1" data-name="Ebene 1" xmlns="http://www.w3.org/2000/svg" xmlns:xlink="http://www.w3.org/1999/xlink" viewBox="0 0 1579.2 1579.2"><defs><style>.cls-1{fill:#10052f;}.cls-2{fill:url(#Unbenannter_Verlauf_88);}.cls-3{fill:url(#Unbenannter_Verlauf_71);}.cls-4{fill:url(#Unbenannter_Verlauf_88-2);}.cls-5{fill:url(#Unbenannter_Verlauf_534);}.cls-6{fill:url(#Unbenannter_Verlauf_87);}.cls-7{fill:url(#Unbenannter_Verlauf_89);}.cls-8{fill:url(#Unbenannter_Verlauf_87-2);}</style><radialGradient id="Unbenannter_Verlauf_88" cx="999.72" cy="817.5" r="527.77" gradientUnits="userSpaceOnUse"><stop offset="0.31" stop-color="#1c1564"/><stop offset="0.32" stop-color="#1c1666"/><stop offset="0.63" stop-color="#262e97"/><stop offset="0.87" stop-color="#2c3cb6"/><stop offset="1" stop-color="#2e42c1"/></radialGradient><radialGradient id="Unbenannter_Verlauf_71" cx="700.28" cy="1008.5" r="604.68" gradientTransform="translate(0 120.7) scale(1 0.88)" gradientUnits="userSpaceOnUse"><stop offset="0.4" stop-color="#1c1564"/><stop offset="0.41" stop-color="#1c1666"/><stop offset="0.68" stop-color="#262e97"/><stop offset="0.89" stop-color="#2c3cb6"/><stop offset="1" stop-color="#2e42c1"/></radialGradient><radialGradient id="Unbenannter_Verlauf_88-2" cx="880.43" cy="254.09" r="834.56" xlink:href="#Unbenannter_Verlauf_88"/><linearGradient id="Unbenannter_Verlauf_534" x1="-2415.77" y1="3686.27" x2="-2415.77" y2="3686.27" gradientTransform="matrix(-0.33, 0.94, 0.94, 0.33, -2781.25, 2140.96)" gradientUnits="userSpaceOnUse"><stop offset="0" stop-color="#283fa3"/><stop offset="1" stop-color="#1b1464"/></linearGradient><linearGradient id="Unbenannter_Verlauf_87" x1="431.43" y1="656.97" x2="1607.33" y2="911.5" gradientUnits="userSpaceOnUse"><stop offset="0" stop-color="#46ffd7"/><stop offset="0.28" stop-color="#3ecfe7"/><stop offset="0.3" stop-color="#3dc5e5"/><stop offset="0.39" stop-color="#399cdc"/><stop offset="0.47" stop-color="#367ed6"/><stop offset="0.54" stop-color="#346cd2"/><stop offset="0.59" stop-color="#3365d1"/><stop offset="0.6" stop-color="#3465d1"/><stop offset="0.69" stop-color="#6469cb"/><stop offset="0.78" stop-color="#8a6cc6"/><stop offset="0.87" stop-color="#a66ec2"/><stop offset="0.94" stop-color="#b670c0"/><stop offset="1" stop-color="#bc70bf"/></linearGradient><linearGradient id="Unbenannter_Verlauf_89" x1="304.09" y1="1100.39" x2="1318.66" y2="214.88" gradientUnits="userSpaceOnUse"><stop offset="0" stop-color="#46ffd7"/><stop offset="0.31" stop-color="#3ecfe7"/><stop offset="0.72" stop-color="#3365d1"/><stop offset="0.77" stop-color="#3765d0"/><stop offset="0.82" stop-color="#4566cf"/><stop offset="0.87" stop-color="#5a68cc"/><stop offset="0.92" stop-color="#796bc8"/><stop offset="0.97" stop-color="#a06ec3"/><stop offset="1" stop-color="#bc70bf"/></linearGradient><linearGradient id="Unbenannter_Verlauf_87-2" x1="789.36" y1="682.36" x2="1484.86" y2="1281.07" xlink:href="#Unbenannter_Verlauf_87"/></defs><title>4_5870679299551398471</title><circle class="cls-1" cx="789.6" cy="789.6" r="789.6"/><path class="cls-1" d="M1473.9,497l1,1a736.8,736.8,0,0,0-76.4-128.1C1156.7,43.9,696.2-24.4,370,217.3,68.3,441-12.7,851.6,168.3,1170l1,1.7c3,5.3,6.1,10.6,9.3,15.8l2.9,4.7c2.6,4.3,5.4,8.6,8.1,12.9l3.6,5.5,8.4,12.5,3.5,5.1c4,5.7,8.1,11.4,12.2,17h.1c4,5.4,8,10.6,12.1,15.8l3.9,4.9c2.8,3.5,5.6,7.1,8.5,10.5s3.1,3.7,4.7,5.6l8.1,9.5c1.6,1.9,3.3,3.7,5,5.6s5.4,6.1,8.2,9.1,3.3,3.5,5,5.3l8.6,9,4.8,4.9,9.2,9.2,4.5,4.3,10.1,9.5,3.9,3.6c3.8,3.4,7.6,6.8,11.5,10.1l2.8,2.5c4.5,3.9,9.1,7.8,13.8,11.6l.7.6c254.5,208.1,626.9,225.7,903.1,21,14.8-11,28.9-22.6,42.6-34.4l.2.2h0l1.1-1.2h.1l.6-.6a90.2,90.2,0,0,0,12.9-11.5,730.3,730.3,0,0,0,190.9-279.8h.1c.8-2.9,1.7-5.7,2.5-8.6C1563.5,881.4,1558.3,677.5,1473.9,497ZM931.4,1272.1h0c-189.1,57.6-396,.5-521.8-169.2a489.9,489.9,0,0,1-50.5-84.3h-.4c-25.9-222.9,64.8-453.1,258.1-596.3A646.9,646.9,0,0,1,847.5,313.4a495.8,495.8,0,0,1,288.1,122.2c-139-33.6-291.4-7.6-415.3,84.2-170.6,126.4-237.2,340.8-184,533.8,12.2-131.1,78-256.7,192.2-341.3,5.8-4.4,11.8-8.5,17.8-12.6a.3.3,0,0,0-.1.2l6.9-4.6c5.3-3.5,10.6-6.9,15.9-10.1l3.8-2.1c2.8-1.7,5.7-3.2,8.6-4.8a352.3,352.3,0,0,1,168.2-42.5c146.6,0,273,89.7,331.8,219.3-122.9-116.6-315.3-131.8-456-27.5a357,357,0,0,0-71.9,71.2c4.3-2.8,8.7-5.4,13-8.1a207.9,207.9,0,0,1,103.4-27.5c115.5,0,209.1,93.6,209.1,209C1079,1166.3,1016.8,1245.9,931.4,1272.1Zm357.6,91h0l-.3.6Z" transform="translate(-18 -18)"/><path class="cls-2" d="M1221.4,1275.2c59-67.9,95-158,95-256.9,0-211.3-164.2-382.5-366.8-382.5-75.3,0-145.2,23.6-203.4,64.1,0,0,97-149.5,401.3-101.7s359.1,286.9,346.8,472.5a729.7,729.7,0,0,1-204.4,291.9Z" transform="translate(-18 -18)"/><path class="cls-3" d="M1289.1,1363h-.1l-.3.6-.2-.2c-13.7,11.8-27.8,23.4-42.6,34.4-326.2,241.8-786.6,173.5-1028.5-152.6A731.6,731.6,0,0,1,82.7,927.5l276.4,91.1a489.9,489.9,0,0,0,50.5,84.3c125.8,169.7,332.7,226.8,521.8,169.2h0c85.4-26.2,147.6-105.8,147.6-199.9,0-115.4-93.6-209-209.1-209a207.6,207.6,0,0,0-116.4,35.6s142.9-116.9,334.1-50.9c0,0,183.4,58.6,243.9,253.8S1289.1,1363,1289.1,1363Z" transform="translate(-18 -18)"/><path class="cls-4" d="M1494.6,1068.5c85.8-226.3,58.3-490-96.6-698.8-2.3-3.1-4.7-6-7.1-9.1l-127.8-65.4L818,215.8,791.6,312c156.9-4.9,313.7,64.5,414.3,200.1a480.6,480.6,0,0,1,62.7,113.7l29.3,14.5,164.6,163.1,39.3,174.7-6.3,77.8Z" transform="translate(-18 -18)"/><path class="cls-5" d="M1494.3,1071.3" transform="translate(-18 -18)"/><path class="cls-6" d="M1494.4,1070.7c46.2-147.3,23.7-313.8-75.3-447.3C1254.8,401.9,941.9,355.5,720.3,519.8c-170.6,126.4-237.2,340.8-184,533.8,12.2-131.1,78-256.7,192.2-341.3,213.1-158,514.1-113.4,672.1,99.7A477.3,477.3,0,0,1,1494.4,1070.7Z" transform="translate(-18 -18)"/><path class="cls-7" d="M616.8,422.2C883.7,224.3,1252.5,262,1474.9,498a736.8,736.8,0,0,0-76.4-128.1C1156.7,43.9,696.2-24.4,370,217.3s-394.4,702-152.6,1028c131.7,177.5,328.1,278.4,532.4,294.7a645.7,645.7,0,0,1-267.7-210.7C268.7,1041.7,329,635.5,616.8,422.2Z" transform="translate(-18 -18)"/><path class="cls-8" d="M1288.7,1363.7c122.4-122.4,140-319.2,33.8-462.3C1205.6,743.8,983,710.8,825.4,827.6a357,357,0,0,0-71.9,71.2c162-106.3,380.9-69,497.8,88.6C1335,1100.2,1344.5,1245,1288.7,1363.7Z" transform="translate(-18 -18)"/></svg>