<svg width="18" height="19" viewBox="0 0 18 19" fill="none" xmlns="http://www.w3.org/2000/svg">
<path d="M8.40234 0.53125L1.08984 3.27344C0.421875 3.51953 0 4.15234 0 4.85547V12.7656C0 13.3984 0.351562 13.9961 0.914062 14.2773L8.22656 17.9336C8.71875 18.1797 9.24609 18.1797 9.73828 17.9336L17.0508 14.2773C17.6133 13.9961 17.9648 13.3984 17.9648 12.7656V4.85547C17.9648 4.15234 17.543 3.51953 16.875 3.27344L9.5625 0.53125C9.21094 0.390625 8.78906 0.390625 8.40234 0.53125ZM9 2.11328L16.3125 4.85547L9 7.84375L1.6875 4.85547L9 2.11328ZM1.6875 6.68359L8.15625 9.32031V16L1.6875 12.7656V6.68359ZM9.84375 16V9.32031L16.3125 6.68359V12.7656L9.84375 16Z" fill="#251552"/>
</svg>
