<svg xmlns="http://www.w3.org/2000/svg" viewBox="0 0 402.8 302.2"><defs><style>.cls-1{fill:#251552;}.cls-2{fill:none;stroke:#251552;stroke-miterlimit:10;stroke-width:10px;}</style></defs><title>Asset 1</title><g id="Layer_2" data-name="Layer 2"><g id="Layer_1-2" data-name="Layer 1"><path class="cls-1" d="M271.5,300.9c30.5-3.2,52.2-10.5,64.1-21.3s14.2-24.4,8.4-35.1c-4.3-8.1-12.8-14.2-36.6-26.4-13.2-6.7-19.4-12-19.4-16.5s3.8-9.6,8.5-12.8c7.8-5.4,17-8.7,43.9-15.4s36-10.8,44.9-19.7c11.4-11.2,17.5-24,17.5-36.7s-3.5-20.4-13.7-34.7C356.4,36.4,298.8,7.2,227.9.8c-11.4-1.1-38.5-1.1-50,0C118.8,6.2,66.9,27.9,36.5,60.1,13,84.9,0,113.4,0,140.2c0,31.6,14.4,62.7,41.5,90.1A190.9,190.9,0,0,0,73.9,257c40.5,26.9,87.5,41.6,144.3,45C226.7,302.5,263.1,301.8,271.5,300.9Zm-26.2-11.7c-14.9.1-28.7.1-30.7-.1-32.2-2.6-54-7-79.1-15.6-34.9-11.8-62.8-28.7-85.1-51.2C34.3,206,24.2,190.5,18.2,172.6c-11.6-34.7-4.6-66.1,21.7-97.4C58,53.5,89.8,34,123.8,23.4,186.8,4,257.3,8.5,312.6,35.5c31,15.1,53,34,70.5,60.7,5.5,8.6,7.6,14.1,7.6,21.2,0,8.9-4,16.9-13.2,26.2-7.6,7.6-15.2,10.9-41.1,17.3s-35.4,9.9-44.9,15.9c-12.9,8.2-19.3,21.6-14.9,31.5,3.6,8.3,9.5,12.9,31.3,24.5s26.1,15.3,26.1,23c0,5.5-3.9,12.9-9.2,17-8.5,6.8-21.7,11.4-41.8,14.5C274.1,288.7,267.8,289,245.3,289.2Z"/><circle class="cls-1" cx="223.9" cy="66.6" r="25.4"/><circle class="cls-1" cx="314.3" cy="101.5" r="25.4"/><circle class="cls-1" cx="125.5" cy="76" r="25.4"/><circle class="cls-2" cx="192.7" cy="207.6" r="36.2"/><circle class="cls-1" cx="73.2" cy="150.4" r="25.4"/></g></g></svg>