<svg width="20" height="19" viewBox="0 0 20 19" fill="none" xmlns="http://www.w3.org/2000/svg">
<path d="M13.0234 10.1641L11.1602 9.91797L10.3516 8.23047C10.2812 8.08984 10.1406 8.01953 9.96484 8.01953C9.82422 8.01953 9.68359 8.08984 9.61328 8.23047L8.80469 9.91797L6.94141 10.1641C6.625 10.2344 6.48438 10.6211 6.73047 10.8672L8.06641 12.168L7.75 13.9961C7.71484 14.2422 7.92578 14.4531 8.13672 14.4531C8.20703 14.4531 8.27734 14.4531 8.34766 14.418L10 13.5391L11.6172 14.418C11.6875 14.4531 11.7578 14.4531 11.8281 14.4531C12.0391 14.4531 12.25 14.2422 12.2148 13.9961L11.8984 12.168L13.2344 10.8672C13.4805 10.6211 13.3398 10.2344 13.0234 10.1641ZM18.4023 0.25H12.8828C12.4609 0.25 12.1094 0.460938 11.8984 0.8125L10 4.01172L8.06641 0.8125C7.89062 0.496094 7.43359 0.25 7.08203 0.25H1.5625C1.10547 0.25 0.824219 0.777344 1.07031 1.16406L5.07812 6.89453C3.95312 8.08984 3.25 9.70703 3.25 11.5C3.25 15.2266 6.27344 18.25 10 18.25C13.6914 18.25 16.75 15.2266 16.75 11.5C16.75 9.70703 16.0117 8.08984 14.8867 6.89453L18.8945 1.16406C19.1406 0.777344 18.8594 0.25 18.4023 0.25ZM3.70703 1.9375H6.76562L8.55859 4.92578C7.78516 5.10156 7.04688 5.38281 6.41406 5.80469L3.70703 1.9375ZM15.0625 11.5C15.0625 14.3125 12.7773 16.5625 10 16.5625C7.1875 16.5625 4.9375 14.3125 4.9375 11.5C4.9375 8.72266 7.1875 6.4375 10 6.4375C12.7773 6.4375 15.0625 8.72266 15.0625 11.5ZM13.5508 5.80469C12.918 5.38281 12.1797 5.10156 11.4062 4.92578L13.1992 1.9375H16.2578L13.5508 5.80469Z" fill="#251552"/>
</svg>
