<svg width="17" height="19" viewBox="0 0 17 19" fill="none" xmlns="http://www.w3.org/2000/svg">
<path d="M15.8477 2.57031L14.0547 0.777344C13.7734 0.496094 13.2461 0.25 12.8594 0.25H6.8125C5.86328 0.25 5.125 1.02344 5.125 1.9375V3.625H2.3125C1.36328 3.625 0.625 4.39844 0.625 5.3125V16.5625C0.625 17.5117 1.36328 18.25 2.3125 18.25H10.1875C11.1016 18.25 11.875 17.5117 11.875 16.5625V14.875H14.6875C15.6016 14.875 16.375 14.1367 16.375 13.1875V3.76562C16.375 3.37891 16.1289 2.85156 15.8477 2.57031ZM13 1.41016C13.0703 1.44531 13.1758 1.48047 13.2461 1.55078L15.0742 3.37891C15.1445 3.44922 15.1797 3.55469 15.2148 3.625H13V1.41016ZM10.75 16.5625C10.75 16.8789 10.4688 17.125 10.1875 17.125H2.3125C1.99609 17.125 1.75 16.8789 1.75 16.5625V5.3125C1.75 5.03125 1.99609 4.75 2.3125 4.75H5.125V13.1875C5.125 14.1367 5.86328 14.875 6.8125 14.875H10.75V16.5625ZM15.25 13.1875C15.25 13.5039 14.9688 13.75 14.6875 13.75H6.8125C6.49609 13.75 6.25 13.5039 6.25 13.1875V1.9375C6.25 1.65625 6.49609 1.375 6.8125 1.375H11.875V3.90625C11.875 4.39844 12.2266 4.75 12.7188 4.75H15.25V13.1875Z" fill="black"/>
</svg>
