<svg width="18" height="18" viewBox="0 0 18 18" fill="none" xmlns="http://www.w3.org/2000/svg">
<path d="M10.5 13.1562L9.78125 12.4688C9.625 12.3125 9.40625 12.3125 9.25 12.4688L7.21875 14.5C6.1875 15.5312 4.5625 15.5 3.53125 14.5312C2.46875 13.5312 2.46875 11.8438 3.53125 10.75L5.53125 8.75C5.6875 8.59375 5.6875 8.375 5.53125 8.21875L4.84375 7.5C4.6875 7.375 4.4375 7.375 4.3125 7.5L2.28125 9.53125C0.5625 11.25 0.5625 14.0312 2.28125 15.7188C3.96875 17.4375 6.75 17.4375 8.46875 15.7188L10.5 13.6875C10.625 13.5625 10.625 13.3125 10.5 13.1562ZM8.71875 5.5625L10.7188 3.5625C11.8125 2.5 13.5 2.5 14.5 3.5625C15.4688 4.59375 15.5 6.21875 14.4688 7.25L12.4375 9.28125C12.2812 9.4375 12.2812 9.65625 12.4375 9.8125L13.125 10.5312C13.2812 10.6562 13.5312 10.6562 13.6562 10.5312L15.6875 8.5C17.4062 6.78125 17.4062 4 15.6875 2.3125C14 0.59375 11.2188 0.59375 9.5 2.3125L7.46875 4.34375C7.34375 4.46875 7.34375 4.71875 7.46875 4.875L8.1875 5.5625C8.34375 5.71875 8.5625 5.71875 8.71875 5.5625ZM16.1562 16.9062L16.875 16.1875C17.0312 16.0625 17.0312 15.8125 16.875 15.6562L2.34375 1.125C2.1875 0.96875 1.9375 0.96875 1.8125 1.125L1.09375 1.84375C0.9375 1.96875 0.9375 2.21875 1.09375 2.375L15.625 16.9062C15.7812 17.0625 16.0312 17.0625 16.1562 16.9062Z" fill="#333333"/>
</svg>
