<svg width="14" height="20" viewBox="0 0 14 20" fill="none" xmlns="http://www.w3.org/2000/svg">
<path d="M7.59375 2.12891C7.59375 1.28516 6.46875 0.933594 6.01172 1.63672C2.67188 6.83984 7.03125 9.65234 7.03125 11.375C7.03125 12.1836 6.39844 12.7812 5.625 12.7812C4.81641 12.7812 4.21875 12.1836 4.21875 11.375V7.68359C4.21875 6.98047 3.44531 6.59375 2.88281 6.98047C1.05469 8.24609 0 10.3203 0 12.5C0 16.2266 3.02344 19.25 6.75 19.25C10.4414 19.25 13.5 16.2266 13.5 12.5C13.5 6.52344 7.59375 5.75 7.59375 2.12891ZM6.75 17.5625C3.9375 17.5625 1.6875 15.3125 1.6875 12.5C1.6875 11.5156 1.96875 10.25 2.53125 9.40625V11.375C2.53125 13.0977 3.90234 14.4688 5.625 14.4688C7.3125 14.4688 8.71875 13.0977 8.71875 11.375C8.71875 9.125 5.625 7.15625 6.46875 4.0625C7.875 7.15625 11.8125 8.35156 11.8125 12.5C11.8125 15.3125 9.52734 17.5625 6.75 17.5625Z" fill="#251552"/>
</svg>
