<svg width="18" height="17" viewBox="0 0 18 17" fill="none" xmlns="http://www.w3.org/2000/svg">
<path d="M9 13.5938C11.3203 13.5938 13.2188 11.7305 13.2188 9.375C13.2188 7.05469 11.3203 5.15625 9 5.15625C6.64453 5.15625 4.78125 7.05469 4.78125 9.375C4.78125 11.7305 6.64453 13.5938 9 13.5938ZM9 6.84375C10.3711 6.84375 11.5312 8.00391 11.5312 9.375C11.5312 10.7812 10.3711 11.9062 9 11.9062C7.59375 11.9062 6.46875 10.7812 6.46875 9.375C6.46875 8.00391 7.59375 6.84375 9 6.84375ZM8.15625 9.375C8.15625 8.91797 8.50781 8.53125 9 8.53125C9.28125 8.53125 9.5625 8.28516 9.5625 7.96875C9.5625 7.6875 9.28125 7.40625 9 7.40625C7.91016 7.40625 7.03125 8.32031 7.03125 9.375C7.03125 9.69141 7.27734 9.9375 7.59375 9.9375C7.875 9.9375 8.15625 9.69141 8.15625 9.375ZM12.0234 4.27734H16.3125V14.4023H1.6875V4.27734H5.94141L6.78516 2.02734H11.1797L12.0234 4.27734ZM11.3906 0.339844H6.78516C6.08203 0.339844 5.44922 0.796875 5.20312 1.46484L4.78125 2.58984H1.6875C0.738281 2.58984 0 3.36328 0 4.27734V14.4023C0 15.3516 0.738281 16.0898 1.6875 16.0898H16.3125C17.2266 16.0898 18 15.3516 18 14.4023V4.27734C18 3.36328 17.2266 2.58984 16.3125 2.58984H13.2188L12.6914 1.25391C12.4805 0.726562 11.9883 0.339844 11.3906 0.339844Z" fill="#251552"/>
</svg>
