<?xml version="1.0" encoding="utf-8"?>
<!-- Generator: Adobe Illustrator 24.0.0, SVG Export Plug-In . SVG Version: 6.00 Build 0)  -->
<svg version="1.1" id="Layer_1" xmlns="http://www.w3.org/2000/svg" xmlns:xlink="http://www.w3.org/1999/xlink" x="0px" y="0px"
	 viewBox="0 0 841.9 595.3" style="enable-background:new 0 0 841.9 595.3;" xml:space="preserve">
<path d="M704,306.5C704,460.2,579.3,585,425.6,585c-153.9,0-278.5-124.8-278.4-278.9c0.1-153.6,125-278,279-277.9
	C579.3,28.3,704,153.1,704,306.5z M425.3,340.5C425.3,340.5,425.3,340.5,425.3,340.5c-18.4,0-36.8-0.1-55.2,0.1
	c-17.7,0.2-34.1,4.9-48.9,14.6c-27.2,17.8-41.7,43.1-43.4,75.7c-0.7,13.4,3.6,24.8,14,33.4c50.2,41.5,107.5,56.7,171.5,45.7
	c34.9-6,65.9-21.2,93.4-43.5c7.7-6.3,13.7-13.7,15.5-23.7c2.7-15,0.4-29.7-5.6-43.5c-16.5-37.9-45.9-57.5-87.2-58.7
	C461.4,340.1,443.3,340.5,425.3,340.5z M425.3,295.6c51.2,0.2,92.3-40.9,92.9-91.8c0.7-50.5-40.9-93.6-92.4-93.5
	c-51.1,0-92.3,40.9-92.9,91.9C332.2,253.3,374.5,296,425.3,295.6z"/>
</svg>
