<svg width="16" height="16" viewBox="0 0 16 16" fill="none" xmlns="http://www.w3.org/2000/svg">
<path d="M15.625 0.25H14.75C14.5312 0.25 14.375 0.4375 14.375 0.65625L14.4375 3.71875C13.0625 1.625 10.6562 0.25 7.96875 0.28125C3.6875 0.28125 0.21875 3.78125 0.25 8.03125C0.25 12.3125 3.71875 15.75 8 15.75C9.96875 15.75 11.8125 15 13.1875 13.7812C13.3438 13.625 13.3438 13.375 13.1875 13.2188L12.5625 12.5938C12.4375 12.4688 12.2188 12.4688 12.0625 12.5938C10.9688 13.5625 9.5625 14.125 8 14.125C4.59375 14.125 1.875 11.4062 1.875 8C1.875 4.625 4.59375 1.875 8 1.875C10.4688 1.875 12.5938 3.375 13.5625 5.5L9.625 5.40625C9.40625 5.40625 9.25 5.5625 9.25 5.78125V6.625C9.25 6.84375 9.40625 7 9.625 7H15.625C15.8125 7 16 6.84375 16 6.625V0.625C16 0.4375 15.8125 0.25 15.625 0.25Z" fill="#4E14FF"/>
</svg>
