<svg id="Layer_1" data-name="Layer 1" xmlns="http://www.w3.org/2000/svg" viewBox="0 0 1770.8 450.9"><defs><style>.cls-1{fill:#fff;}</style></defs><title>solsea_Logo_RGB_final2</title><path class="cls-1" d="M79,571.5h67.6c0,19.9,17.4,38.5,47.8,38.5,28.5,0,47.1-13,47.1-31.6,0-16.2-12.4-23.6-34.1-28.6l-38.5-9.9c-65.1-17.4-81.8-52.1-81.8-88.7,0-45.3,44.6-85,107.9-85,51.5,0,109.8,25.5,109.2,90.6H235.3c0-20.5-18-32.9-38.5-32.9-22.3,0-37.8,12.4-37.8,30.4,0,14.9,14.3,23.6,31,27.3L236.5,494c65.2,16.8,77,57.7,77,84.4,0,58.9-59,89.9-117.9,89.9S80.2,633.6,79,571.5Z" transform="translate(-79 -217.4)"/><path class="cls-1" d="M368.6,516.3c0-91.8,71.4-150.1,153.9-150.1s154.4,58.3,154.4,150.1-71.9,152-154.4,152S368.6,608.1,368.6,516.3Zm235.7,0c0-49.6-37.2-83.1-81.8-83.1s-81.3,33.5-81.3,83.1,36.6,85,81.3,85S604.3,567.2,604.3,516.3Z" transform="translate(-79 -217.4)"/><path class="cls-1" d="M750.7,217.4h72V662.1h-72Z" transform="translate(-79 -217.4)"/><path class="cls-1" d="M894.6,571.5h67.6c0,19.9,17.4,38.5,47.8,38.5,28.5,0,47.1-13,47.1-31.6,0-16.2-12.4-23.6-34.1-28.6l-38.5-9.9c-65.1-17.4-81.8-52.1-81.8-88.7,0-45.3,44.6-85,107.9-85,51.5,0,109.8,25.5,109.2,90.6h-68.9c0-20.5-18-32.9-38.4-32.9-22.4,0-37.9,12.4-37.9,30.4,0,14.9,14.3,23.6,31,27.3l46.6,12.4c65.1,16.8,76.9,57.7,76.9,84.4,0,58.9-59,89.9-117.9,89.9S895.8,633.6,894.6,571.5Z" transform="translate(-79 -217.4)"/><path class="cls-1" d="M1482.6,542.4H1258.7c8.1,40.3,39.1,60.8,81.9,60.8,31.6,0,61.4-12.4,78.7-36l47.8,36.6c-26.7,42.2-77.5,64.5-130.3,64.5-86.8,0-152.5-60.8-152.5-151.3,0-92.5,69.4-150.8,151.9-150.8s148.3,57.7,148.3,148.3A254.3,254.3,0,0,1,1482.6,542.4Zm-70.1-50.2c-4.3-39.7-34.7-62.7-75-62.7s-70.1,18.6-78.8,62.7Z" transform="translate(-79 -217.4)"/><path class="cls-1" d="M1849.8,372.4V662.1h-72V623c-19.8,31-60.8,45.3-96.1,45.3-76.3,0-142.7-58.9-142.7-151.3s65.8-150.8,142.1-150.8c36.6,0,76.9,14.3,96.7,44.7V372.4Zm-73.2,143.9c0-50.8-42.2-83.1-83.8-83.1-44.6,0-81.2,34.8-81.2,83.1s36.6,84.4,81.2,84.4S1776.6,567.2,1776.6,516.3Z" transform="translate(-79 -217.4)"/></svg>