<svg id="Layer_1" data-name="Layer 1" xmlns="http://www.w3.org/2000/svg" viewBox="0 0 1909.4 486.2"><defs><style>.cls-1{fill:#10052f;}</style></defs><title>solsea_Logo_RGB_dark2</title><path class="cls-1" d="M8,578.2H80.9c0,21.4,18.7,41.5,51.5,41.5,30.8,0,50.8-14.1,50.8-34.1,0-17.4-13.4-25.4-36.8-30.8L105,544.1c-70.2-18.7-88.3-56.2-88.3-95.6,0-48.9,48.1-91.7,116.4-91.7,55.5,0,118.3,27.5,117.7,97.7H176.5c0-22.1-19.4-35.5-41.4-35.5-24.1,0-40.8,13.4-40.8,32.8,0,16.1,15.4,25.4,33.4,29.4l50.2,13.4c70.2,18.1,82.9,62.2,82.9,91,0,63.5-63.5,96.9-127.1,96.9S9.3,645.1,8,578.2Z" transform="translate(-8 -196.3)"/><path class="cls-1" d="M320.3,518.7c0-99,76.9-161.9,165.9-161.9s166.5,62.9,166.5,161.9S575.1,682.5,486.2,682.5,320.3,617.7,320.3,518.7Zm254.2,0c0-53.5-40.2-89.6-88.3-89.6s-87.6,36.1-87.6,89.6,39.4,91.6,87.6,91.6S574.5,573.5,574.5,518.7Z" transform="translate(-8 -196.3)"/><path class="cls-1" d="M732.3,196.3h77.6V675.9H732.3Z" transform="translate(-8 -196.3)"/><path class="cls-1" d="M887.4,578.2h72.9c0,21.4,18.8,41.5,51.5,41.5,30.8,0,50.9-14.1,50.9-34.1,0-17.4-13.4-25.4-36.8-30.8l-41.5-10.7c-70.2-18.7-88.3-56.2-88.3-95.6,0-48.9,48.2-91.7,116.4-91.7,55.5,0,118.4,27.5,117.7,97.7H1056c0-22.1-19.4-35.5-41.5-35.5-24.1,0-40.8,13.4-40.8,32.8,0,16.1,15.4,25.4,33.5,29.4l50.1,13.4c70.2,18.1,82.9,62.2,82.9,91,0,63.5-63.5,96.9-127,96.9S888.8,645.1,887.4,578.2Z" transform="translate(-8 -196.3)"/><path class="cls-1" d="M1521.4,546.8H1280c8.7,43.5,42.1,65.5,88.3,65.5,34.1,0,66.2-13.4,84.9-38.8l51.5,39.5c-28.7,45.5-83.6,69.5-140.4,69.5-93.7,0-164.5-65.5-164.5-163.1,0-99.7,74.9-162.6,163.8-162.6s159.9,62.2,159.9,159.9A250.1,250.1,0,0,1,1521.4,546.8Zm-75.5-54.2c-4.7-42.8-37.5-67.5-80.9-67.5s-75.6,20-85,67.5Z" transform="translate(-8 -196.3)"/><path class="cls-1" d="M1917.4,363.5V675.9h-77.6V633.7c-21.4,33.5-65.6,48.8-103.7,48.8-82.2,0-153.8-63.5-153.8-163.1s70.9-162.6,153.1-162.6c39.5,0,83,15.4,104.4,48.2V363.5Zm-79,155.2c0-54.9-45.4-89.6-90.2-89.6-48.2,0-87.7,37.4-87.7,89.6s39.5,90.9,87.7,90.9S1838.4,573.5,1838.4,518.7Z" transform="translate(-8 -196.3)"/></svg>