<svg width="21" height="17" viewBox="0 0 21 17" fill="currentColor" xmlns="http://www.w3.org/2000/svg">
<path d="M18.5625 0.375H1.6875C0.738281 0.375 0 1.14844 0 2.0625V14.4375C0 15.3867 0.738281 16.125 1.6875 16.125H18.5625C19.4766 16.125 20.25 15.3867 20.25 14.4375V2.0625C20.25 1.14844 19.4766 0.375 18.5625 0.375ZM18.5625 14.4375H1.6875V2.0625H18.5625V14.4375ZM7.3125 8.25C8.54297 8.25 9.5625 7.26562 9.5625 6C9.5625 4.76953 8.54297 3.75 7.3125 3.75C6.04688 3.75 5.0625 4.76953 5.0625 6C5.0625 7.26562 6.04688 8.25 7.3125 8.25ZM4.14844 12.75H10.4414C10.8984 12.75 11.25 12.4688 11.25 12.082V11.4141C11.25 10.2891 10.1602 9.375 8.85938 9.375C8.50781 9.375 8.22656 9.65625 7.3125 9.65625C6.36328 9.65625 6.11719 9.375 5.73047 9.375C4.42969 9.375 3.375 10.2891 3.375 11.4141V12.082C3.375 12.4688 3.72656 12.75 4.14844 12.75ZM12.6562 10.5H16.5938C16.7344 10.5 16.875 10.3945 16.875 10.2188V9.65625C16.875 9.51562 16.7344 9.375 16.5938 9.375H12.6562C12.4805 9.375 12.375 9.51562 12.375 9.65625V10.2188C12.375 10.3945 12.4805 10.5 12.6562 10.5ZM12.6562 8.25H16.5938C16.7344 8.25 16.875 8.14453 16.875 7.96875V7.40625C16.875 7.26562 16.7344 7.125 16.5938 7.125H12.6562C12.4805 7.125 12.375 7.26562 12.375 7.40625V7.96875C12.375 8.14453 12.4805 8.25 12.6562 8.25ZM12.6562 6H16.5938C16.7344 6 16.875 5.89453 16.875 5.71875V5.15625C16.875 5.01562 16.7344 4.875 16.5938 4.875H12.6562C12.4805 4.875 12.375 5.01562 12.375 5.15625V5.71875C12.375 5.89453 12.4805 6 12.6562 6Z" fill="#251552"/>
</svg>
