<svg width="21" height="19" viewBox="0 0 21 19" fill="none" xmlns="http://www.w3.org/2000/svg">
<path d="M6.1875 3.625C5.23828 3.625 4.5 4.39844 4.5 5.3125C4.5 6.26172 5.23828 7 6.1875 7C7.10156 7 7.875 6.26172 7.875 5.3125C7.875 4.39844 7.10156 3.625 6.1875 3.625ZM12.9375 3.625C11.9883 3.625 11.25 4.39844 11.25 5.3125C11.25 6.26172 11.9883 7 12.9375 7C13.8516 7 14.625 6.26172 14.625 5.3125C14.625 4.39844 13.8516 3.625 12.9375 3.625ZM19.3359 8.6875C19.1602 8.72266 18.9492 8.79297 18.8086 8.86328L15.75 10.9375C15.7148 10.5859 15.5742 10.0234 15.3633 9.74219C16.9102 8.86328 18 7.21094 18 5.3125C18 2.53516 15.7148 0.25 12.9375 0.25C11.6719 0.25 10.4766 0.742188 9.5625 1.58594C8.61328 0.742188 7.41797 0.25 6.1875 0.25C3.375 0.25 1.125 2.53516 1.125 5.3125C1.125 6.61328 1.61719 7.80859 2.42578 8.6875H1.125C0.492188 8.6875 0 9.21484 0 9.8125V12.0625C0 12.6953 0.492188 13.1875 1.125 13.1875H2.8125V16C2.8125 17.2656 3.79688 18.25 5.0625 18.25H13.5C14.7305 18.25 15.75 17.2656 15.75 16V16.0352L18.8086 18.1094C18.9492 18.1797 19.1602 18.25 19.3359 18.25C19.793 18.25 20.25 17.8984 20.25 17.3711V9.60156C20.25 9.07422 19.793 8.6875 19.3359 8.6875ZM14.0625 16C14.0625 16.3164 13.7812 16.5625 13.5 16.5625H5.0625C4.74609 16.5625 4.5 16.3164 4.5 16V11.5H1.6875V10.375H13.5C13.7812 10.375 14.0625 10.6562 14.0625 10.9375V16ZM12.9375 8.6875H6.1875C4.32422 8.6875 2.8125 7.17578 2.8125 5.3125C2.8125 3.48438 4.32422 1.9375 6.1875 1.9375C6.99609 1.9375 7.76953 2.25391 8.40234 2.81641L9.5625 3.83594L10.6875 2.81641C11.3203 2.25391 12.0938 1.9375 12.9375 1.9375C14.7656 1.9375 16.3125 3.48438 16.3125 5.3125C16.3125 7.17578 14.7656 8.6875 12.9375 8.6875ZM18.5625 15.8945L15.75 13.9961V12.9414L18.5625 11.0781V15.8945Z" fill="#251552"/>
</svg>
